<svg width="42" height="42" viewBox="0 0 42 42" fill="none" xmlns="http://www.w3.org/2000/svg">
<path fill-rule="evenodd" clip-rule="evenodd" d="M21.0002 0.833252C9.86266 0.833252 0.833496 9.86242 0.833496 20.9999C0.833496 32.1374 9.86266 41.1666 21.0002 41.1666C32.1377 41.1666 41.1668 32.1374 41.1668 20.9999C41.1668 9.86242 32.1377 0.833252 21.0002 0.833252ZM29.7415 17.5899C29.9025 17.4059 30.025 17.1916 30.1019 16.9596C30.1788 16.7275 30.2085 16.4824 30.1893 16.2387C30.1701 15.995 30.1024 15.7576 29.9901 15.5405C29.8777 15.3234 29.7231 15.1309 29.5353 14.9744C29.3475 14.8179 29.1303 14.7005 28.8965 14.6292C28.6627 14.5579 28.417 14.534 28.1738 14.5591C27.9306 14.5842 27.6949 14.6576 27.4805 14.7751C27.2662 14.8926 27.0774 15.0517 26.9255 15.2433L19.0422 24.7014L14.963 20.6204C14.6172 20.2865 14.1541 20.1017 13.6734 20.1058C13.1927 20.11 12.7329 20.3028 12.393 20.6427C12.0531 20.9827 11.8603 21.4425 11.8561 21.9232C11.8519 22.4039 12.0367 22.867 12.3707 23.2128L17.8707 28.7128C18.0508 28.8928 18.2665 29.0333 18.5039 29.1254C18.7414 29.2174 18.9954 29.259 19.2498 29.2474C19.5042 29.2359 19.7535 29.1714 19.9816 29.0582C20.2097 28.945 20.4118 28.7855 20.5748 28.5899L29.7415 17.5899Z" fill="#36B853"/>
</svg>
